/* XPM */
static char *_e8e474a54c24630e1f018395fed0cd6[] = {
/* columns rows colors chars-per-pixel */
"68 68 80 1 ",
"  c black",
". c #040404",
"X c gray2",
"o c #060606",
"O c #070707",
"+ c #0C0C0C",
"@ c gray5",
"# c gray6",
"$ c gray8",
"% c gray9",
"& c #181818",
"* c #1B1B1B",
"= c gray12",
"- c #222222",
"; c gray14",
": c gray15",
"> c #2F2F2F",
", c gray19",
"< c #343434",
"1 c #353535",
"2 c #373737",
"3 c #3C3C3C",
"4 c #3F3F3F",
"5 c gray25",
"6 c #414141",
"7 c #434343",
"8 c gray28",
"9 c gray31",
"0 c #515151",
"q c gray32",
"w c gray34",
"e c #5B5B5B",
"r c #5F5F5F",
"t c #606060",
"y c gray38",
"u c #626262",
"i c gray39",
"p c #646464",
"a c gray43",
"s c #6F6F6F",
"d c gray49",
"f c gray50",
"g c #808080",
"h c #818181",
"j c #8B8B8B",
"k c gray55",
"l c #8E8E8E",
"z c gray56",
"x c gray60",
"c c #9A9A9A",
"v c #9F9F9F",
"b c #A4A4A4",
"n c gray66",
"m c #A9A9A9",
"M c #AFAEAE",
"N c #AFAFAF",
"B c #B7B7B7",
"V c gray75",
"C c #C3C3C3",
"Z c #C5C5C5",
"A c #C6C6C6",
"S c gray81",
"D c #D0CFCF",
"F c gray82",
"G c gray83",
"H c #DFDFDF",
"J c gray88",
"K c #E1E1E1",
"L c #E2E2E2",
"P c gray89",
"I c #E9E9E9",
"U c gray93",
"Y c #EFEFEF",
"T c gray94",
"R c #F1F1F1",
"E c #F4F3F3",
"W c gray97",
"Q c #FFFEFE",
"! c gray100",
"~ c None",
/* pixels */
"!!!!!!!!!!!!!!!!!!!!!!!!!!!!!!!!!!!!!!!!!!!!!!!!!!!!!!!!!!!!!!!!!!!~",
"!!!!!!!!!!!!!!!!!!!!!!!!!!!!!!!!!!!!!!!!!!!!!!!!!!!!!!!!!!!!!!!!!!!~",
"!!!!!!!!!!!!!!!!!!!!!!!!!!!!!!!!!!!!!!!!!!!!!!!!!!!!!!!!!!!!!!!!!!!~",
"!!!!!!!!!!!!!!!!!!!!!!!!!!!!!!!!!!!!!!!!!!!!!!!!!!!!!!!!!!!!!!!!!!!~",
"!!!!!!!!!!!!!!!!!!!!!!!!!!!!!!!!!!!!!!!!!!!!!!!!!!!!!!!!!!!!!!!!!!!~",
"!!!!!!!!!!!!!!!!!!!!!!!!!!!!!!!!!!!!!!!!!!!!!!!!!!!!!!!!!!!!!!!!!!!~",
"!!!!!!!!!!!!!!!!!!!!!!!!!!!!!!!!!!!!!!!!!!!!!!!!!!!!!!!!!!!!!!!!!!!~",
"!!!!!!!!!!!!!!!!!!!!!!!!!!!!!!!!!!!!!!!!!!!!!!!!!!!!!!!!!!!!!!!!!!!~",
"!!!!!!!!!!!!!!!!!!!!!!!!!!!!!!!!!!!!!!!!!!!!!!!!!!!!!!!!!!!!!!!!!!!~",
"!!!!!!!!!!!!!!!!!!!!!!!!!!!!!!!!!!!!!!!!!!!!!!!!!!!!!!!!!!!!!!!!!!!~",
"!!!!!!!!!!!!!!!!!!!!!!!!!!!!!!!!!!!!!!!!!!!!!!!!!!!!!!!!!!!!!!!!!!!~",
"!!!!!!!!!!!!!!!!!!!!!!!!!!!!!!!!!!!!!!!!!!!!!!!!!!!!!!!!!!!!!!!!!!!~",
"!!!!!!!!!!!!!!!!!!!!!!!!!!!!!!!!!!!!!!!!!!!!!!!!!!!!!!!!!!!!!!!!!!!~",
"!!!!!!!!!!!!!!!!!!!!!!!!!!!!!!!!!!!!!!!!!!!!!!!!!!!!!!!!!!!!!!!!!!!~",
"!!!!!!!!!!!!!!!!!!!!!!!!!!!!!!!!!!!!!!!!!!!!!!!!!!!!!!!!!!!!!!!!!!!~",
"!!!!!!!!!!!!!!!!!!!!!!!!!!!!Pnd07&&00dnP!!!!!!!!!!!!!!!!!!!!!!!!!!!~",
"!!!!!!!!!!!!!!!!!!!!!!!!!!n7&&&&:00<&&&&0n!!!!!!!!!!!!!!!!!!!!!!!!!~",
"!!!!!!!!!!!!!!!!!!!!!!!!n<&&7xZ!!!!!!Gx7&&<B!!!!!!!!!!!!!!!!!!!!!!!~",
"!!!!!!!!!!!!!!!!!!!!!!R0&&0Z!!!!!!!!!!!!Ps&&tR!!!!!!!!!!!!!!!!!!!!!~",
"!!!!!!!!!!!!!!!!!!!!!G:&:B!!!!!!!!!!!!!!!!Z7&<G!!!!!!!!!!!!!!!!!!!!~",
"!!!!!!!!!!!!!!!!!!!!G:&7R!!!!!!!!!!!!!!!!!!Rs&:G!!!!!!!!!!!!!!!!!!!~",
"!!!!!!!!!!!!!!!!!!!G:&7R!!!!!!C!!!!!!!!!!!!!!s&:P!!!!!!!!!!!!!!!!!!~",
"!!!!!!!!!!!!!!!!!!R<&7R!!!H4st#!!!!!!!!!!!!!!!t&7!!!!!!!!!!!!!!!!!!~",
"!!!!!!!!!!!!!!!!!!t&:P!!!!rV!!!!!!!!!!!!!!!!!!R<%j!!!!!!!!!!!!!!!!!~",
"!!!!!!!!!!!!!!!!!Z&&n!!!!!=!!!!!!!!!!!!!!!!!!!!Z&%P!!!!!!!!!!!!!!!!~",
"!!!!!!!!!!!!!!!!!0&0!!!!!!dz!!!!!!!!!!!!!!!!!!!!s%s!!!!!!!!!!!!!!!!~",
"!!!!!!!!!!!!!!!!Z&&B!!!!!!!>#4gddzCVVVH!!!!!!!!!P&&P!!!!!!!!!!!!!!!~",
"!!!!!!!!!!!!!!!!s&<!!!!!!!!!Nt#         >sV!!!!!!7&x!!!!!!!!!!!!!!!~",
"!!!!!!!!!!!!!!!!:&d!!!!!!!x,&-=&->e4#      7S!!!!x&7!!!!!!!!!!!!!!!~",
"!!!!!!!!!!!!!!!G&&B!!!!!Y-       OtssbNr#   >Y!!!G&&R!!!!!!!!!!!!!!~",
"!!!!!!!!!!!!!!!n&&R!!!!!>        w!!!brYYd   s!!!!&&Z!!!!!!!!!!!!!!~",
"!!!!!!!!!!!!!!!j&&!!!!!!O       %!!!g7S4!!z   S!!!0&x!!!!!!!!!!!!!!~",
"!!!!!!!!!!!!!!!j&0!!!!!S        t!!!77!Sd!!   V!!!0&j!!!!!!!!!!!!!!~",
"!!!!!!!!!!!!!!!j&0!!!!!!#      OY!!!!!!!s!!   v!!!0&j!!!!!!!!!!!!!!~",
"!!!!!!!!!!!!!!!j&0!!!!!!<      :!!!!!!!!NVF   d!!!0&j!!!!!!!!!!!!!!~",
"!!!!!!!!!!!!!!!z&:!!!!!!F#     2!!!!!!!!VV0   C!!!0&j!!!!!!!!!!!!!!~",
"!!!!!!!!!!!!!!!x&&!!!!!!!>     7!!!!!!!!V7   #Y!!!<&Z!!!!!!!!!!!!!!~",
"!!!!!!!!!!!!!!!Z&&Z!!!!!!O     4!!!!!!!IN    d!!!R&&P!!!!!!!!!!!!!!~",
"!!!!!!!!!!!!!!!!&&x!!!!!S      >!!!!!!!!p   ,R!!!B&,!!!!!!!!!!!!!!!~",
"!!!!!!!!!!!!!!!!t&7!!!!!V      %!!!!!!!D t >Y!!!!s&s!!!!!!!!!!!!!!!~",
"!!!!!!!!!!!!!!!!n&&P!!!!!%     OH!!!!!E34grT!!!!R&&Z!!!!!!!!!!!!!!!~",
"!!!!!!!!!!!!!!!!!<&s!!!!!zO   Og!!!!!!IWJT!!!!!!z&<!!!!!!!!!!!!!!!!~",
"!!!!!!!!!!!!!!!!!x&&G!!!!!Pt49F!!!!!!!!!!!!!!!!R:%B!!!!!!!!!!!!!!!!~",
"!!!!!!!!!!!!!!!!!!7&7!!!!!!!!!!!!!!!!!!!!!!!!!!t%0!!!!!!!!!!!!!!!!!~",
"!!!!!!!!!!!!!!!!!!G&&d!!!!!!!!!!!!!!!!!!!!!!!!x&:P!!!!!!!!!!!!!!!!!~",
"!!!!!!!!!!!!!!!!!!!b&&n!!!!!!!!!!!!!!!!!!!!!!n&&B!!!!!!!!!!!!!!!!!!~",
"!!!!!!!!!!!!!!!!!!!!s%&x!!!!!!!!!!!!!!!!!!!!n&&n!!!!!!!!!!!!!!!!!!!~",
"!!!!!!!!!!!!!!!!!!!!!z&&rR!!!!!!!!!!!!!!!!!d&&n!!!!!!!!!!!!!!!!!!!!~",
"!!!!!!!!!!!!!!!!!!!!!!B:%:n!!!!!!!!!!!!!!Z,%:Z!!!!!!!!!!!!!!!!!!!!!~",
"!!!!!!!!!!!!!!!!!!!!!!!Pt&&<vP!!!!!!!!Pn7&&sR!!!!!!!!!!!!!!!!!!!!!!~",
"!!!!!!!!!!!!!!!!!!!!!!!!!Zt&&&<0jjzjt7&&&sP!!!!!!!!!!!!!!!!!!!!!!!!~",
"!!!!!!!!!!!!!!!!!!!!!!!!!!!Pxt:&&&&&&:tnR!!!!!!!!!!!!!!!!!!!!!!!!!!~",
"!!!!!!!!!!!!!!!!!!!!!!!!!!!!!!!!ZZZZ!!!!!!!!!!!!!!!!!!!!!!!!!!!!!!!~",
"!!!!!!!!!!!!!!!!!!!!!!!!!!!!!!!!!!!!!!!!!!!!!!!!!!!!!!!!!!!!!!!!!!!~",
"!!!!!!!!!!!!!!!!!!!!!!!!!!!!!!!!!!!!!!!!!!!!!!!!!!!!!!!!!!!!!!!!!!!~",
"!!!!!!!!!!!!!!!!!!!!!!!!!!!!!!!!!!!!!!!!!!!!!!!!!!!!!!!!!!!!!!!!!!!~",
"!!!!!!!!!!!!!!!!!!!!!!!!!!!!!!!!!!!!!!!!!!!!!!!!!!!!!!!!!!!!!!!!!!!~",
"!!!!!!!!!!!!!!!!!!!!!!!!!!!!!!!!!!!!!!!!!!!!!!!!!!!!!!!!!!!!!!!!!!!~",
"!!!!!!!!!!!!!!!!!!!!!!!!!!!!!!!!!!!!!!!!!!!!!!!!!!!!!!!!!!!!!!!!!!!~",
"!!!!!!!!!!!!!!!!!!!!!!!!!!!!!!!!!!!!!!!!!!!!!!!!!!!!!!!!!!!!!!!!!!!~",
"!!!!!!!!!!!!!!!!!!!!!!!!!!!!!!!!!!!!!!!!!!!!!!!!!!!!!!!!!!!!!!!!!!!~",
"!!!!!!!!!!!!!!!!!!!!!!!!!!!!!!!!!!!!!!!!!!!!!!!!!!!!!!!!!!!!!!!!!!!~",
"!!!!!!!!!!!!!!!!!!!!!!!!!!!!!!!!!!!!!!!!!!!!!!!!!!!!!!!!!!!!!!!!!!!~",
"!!!!!!!!!!!!!!!!!!!!!!!!!!!!!!!!!!!!!!!!!!!!!!!!!!!!!!!!!!!!!!!!!!!~",
"!!!!!!!!!!!!!!!!!!!!!!!!!!!!!!!!!!!!!!!!!!!!!!!!!!!!!!!!!!!!!!!!!!!~",
"!!!!!!!!!!!!!!!!!!!!!!!!!!!!!!!!!!!!!!!!!!!!!!!!!!!!!!!!!!!!!!!!!!!~",
"!!!!!!!!!!!!!!!!!!!!!!!!!!!!!!!!!!!!!!!!!!!!!!!!!!!!!!!!!!!!!!!!!!!~",
"~~~~~~~~~~~~~~~~~~~~~~~~~~~~~~~~~~~~~~~~~~~~~~~~~~~~~~~~~~~~~~~~~~~~"
};
